<?xml version="1.0" encoding="UTF-8"?>
<svg id="Layer_1" data-name="Layer 1" xmlns="http://www.w3.org/2000/svg" viewBox="0 0 261.55 254.39">
  <defs>
    <style>
      .cls-1 {
        fill: #1a0b08;
      }

      .cls-1, .cls-2 {
        stroke-width: 0px;
      }

      .cls-2 {
        fill: #fff;
      }
    </style>
  </defs>
  <path class="cls-1" d="M150.87,14.7l15.89,48.9c2.68,8.24,10.35,13.82,19.02,13.82h51.42c19.37,0,27.42,24.79,11.75,36.17l-41.6,30.22c-7.01,5.09-9.94,14.12-7.26,22.36l15.89,48.9c5.99,18.42-15.1,33.74-30.77,22.36l-41.6-30.22c-7.01-5.09-16.5-5.09-23.51,0l-41.6,30.22c-15.67,11.39-36.76-3.93-30.77-22.36l15.89-48.9c2.68-8.24-.26-17.26-7.26-22.36l-41.6-30.22c-15.67-11.39-7.62-36.17,11.75-36.17h51.42c8.66,0,16.34-5.58,19.02-13.82l15.89-48.9c5.99-18.42,32.05-18.42,38.03,0Z"/>
  <path class="cls-2" d="M151.58,14.46c3.19,9.56,10,30.52,13.17,39.67,0,0,2.24,6.6,2.24,6.6,1.25,4.26,3.27,8.33,6.84,11.08,3.4,2.68,7.7,4.14,12.02,4.02,0,0,6.97-.15,6.97-.15,13.93-.31,27.87-.72,41.79-1.23,0,0,1.74-.07,1.74-.07.47-.03,1.4-.03,1.87-.03,9.79-.11,18.7,6.52,21.88,15.75,3.64,9.87.17,21.31-8.31,27.71-.33.28-1.67,1.32-2.04,1.63-6.76,5.39-25.63,20.52-32.67,26.14,0,0-5.4,4.33-5.4,4.33-3.38,2.84-4.98,7.64-3.95,11.82,2.71,7.9,6.13,16.18,8.92,24.04,0,0,9.67,26.26,9.67,26.26,1.12,3.24,1.77,6.82,1.72,10.48.03,19.33-19.18,34.29-37.94,30.27-5.22-1.02-9.75-3.46-13.92-6.51-8.57-5.97-17.21-11.88-25.72-17.93-2.89-1.93-12.36-8.85-15.03-10.58-2.1-1.3-5.02-1.32-7.08.08,0,0-10.55,7.69-10.55,7.69-5.97,4.24-25.34,18.32-31.13,22.33-1.42.98-2.96,2.01-4.52,2.8-13.75,7.54-32.02,3.23-41.29-9.25-6.62-8.37-8.45-20.23-4.88-30.25,1.69-4.72,5.71-16.04,7.47-20.92,3.09-8.76,6.38-17.46,9.57-26.19.16-.37.37-1.04.51-1.4,1.4-3.45.47-7.63-2.14-10.29-11.09-9.06-23.38-18.7-34.61-27.73-3.61-3.03-8.97-6.59-11.78-10.66-7.61-10.13-6.37-24.96,2.31-33.89,5.03-5.41,12.59-8.16,19.87-7.67,0,0,3.48.16,3.48.16,12.2.53,34.91,1.33,47.02,1.83,7.76.54,15.11-4.8,17.4-12.22,5.65-15.85,11.21-31.77,16.6-47.7,2.37-7.63,9.43-13.44,17.35-14.28,9.75-1.39,19.75,4.75,22.52,14.27h0ZM150.16,14.93c-2.6-8.79-11.88-14.43-20.87-13.08-7.31.84-13.61,6.21-15.7,13.23-3.64,11.38-10.85,33.5-14.45,44.74-.73,2.07-1.39,4.73-2.37,6.67-3.1,6.64-9.93,11.28-17.24,11.81-12.99.19-35.76.07-48.83.15,0,0-3.48,0-3.48,0-5.52-.16-11.11,1.97-14.73,6.19-5.94,6.54-6.64,17.32-.99,24.24,2.27,3.04,7.48,6.23,10.54,8.55,8.73,6.43,27.95,19.99,36.7,26.72,6.61,5.7,8.83,15.52,5.71,23.59-2.75,8.56-10.17,31.44-12.85,39.77-.42,1.51-2.76,8.19-3.07,9.85-1.21,5.28.07,11.04,3.49,15.26,5.33,6.91,15.58,9.47,23.28,5.1,1.59-.76,4.07-2.76,5.58-3.82,0,0,5.63-4.1,5.63-4.1,4.43-3.16,24.24-17.73,28.15-20.5,1.83-1.27,3.87-2.89,5.75-4.1,7.38-4.79,17.61-4.24,24.51,1.15,0,0,2.81,2.05,2.81,2.05,7.31,5.35,26.26,19.13,33.77,24.62,3.53,2.53,7.18,5.68,11.55,6.52,13.64,3.05,26.34-10.47,21.78-23.92-2.9-9.02-10.05-31.1-12.84-39.76-1.1-3.77-3.15-8.88-3.81-12.68-1.21-7.64,2.13-15.7,8.4-20.24,0,0,5.64-4.09,5.64-4.09l22.57-16.34s11.28-8.17,11.28-8.17c3.72-2.48,7.11-5.55,8.76-9.78,3.46-8.18.13-18.57-7.39-23.29-3.86-2.51-8.24-3.08-12.83-2.92,0,0-13.93-.02-13.93-.02-5.45-.06-30.03-.01-34.83-.06-10.22.05-18.4-7.23-20.71-16.97-3.91-12.12-11.03-34.12-14.99-46.4h0Z"/>
</svg>